<svg width="746" height="272" viewBox="0 0 746 272" fill="none" xmlns="http://www.w3.org/2000/svg">
<path d="M160.231 199.597C160.121 199.507 159.821 197.43 160.791 197.051C162.67 196.322 165.678 196.551 166.867 195.862C167.727 195.363 167.877 193.845 168.737 193.346C170.116 192.547 173.004 193.136 174.743 192.157C177.302 190.719 178.172 190.13 181.32 188.602C182.949 187.813 187.687 184.877 187.707 183.389C187.747 180.573 181.41 181.961 179.391 182.75C176.772 183.779 172.485 186.775 169.406 188.113C131.826 204.52 93.5953 220.728 58.0037 240.691L47.649 244.475C50.2677 236.117 57.8337 233.321 65.2999 228.817C87.5584 218.781 109.317 207.596 130.586 196.402C133.765 194.724 144.429 190.2 146.088 188.412C150.336 183.809 145.568 180.903 140.041 182.111C139.192 182.301 139.262 183.839 137.872 184.498C131.676 187.424 126.159 190.07 119.842 192.786C116.753 194.115 115.124 196.501 110.736 195.303C108.248 194.624 108.757 191.508 104.08 193.895C102.661 194.614 101.771 196.142 100.602 196.661C99.2724 197.25 93.5253 197.52 97.5333 199.407C105.119 202.982 97.3833 201.814 95.1745 203.122C93.4953 204.121 91.8162 205.209 89.8172 206.328C88.5879 207.017 88.6279 208.455 87.1686 209.004C83.5705 210.352 77.4736 210.103 82.9408 206.917C83.8803 206.368 88.6678 204.74 84.9298 203.831C80.2222 202.683 79.1827 205.559 76.3242 206.108C75.0049 206.368 72.2263 206.168 72.2463 205C72.2663 203.831 75.9744 203.791 76.9639 203.332C78.3432 202.693 78.3732 201.095 79.5126 200.386C96.114 190.1 115.074 182.511 131.856 171.805C133.165 170.976 136.133 170.807 136.553 170.467C136.653 170.387 136.653 168.11 136.553 168.04C135.804 167.581 132.245 168.35 132.795 165.514L138.442 165.494L140.351 158.034C137.623 155.538 125.269 163.866 121.711 164.515C112.496 166.213 105.429 166.802 97.7931 171.795C88.8877 177.617 77.5836 182.291 68.0085 187.973C57.274 194.354 44.1408 200.146 34.4358 206.677C31.1076 208.914 28.369 210.712 25.3205 212.789C22.9618 214.397 18.2942 215.875 20.6429 212.03C21.5025 210.622 23.7913 210.692 24.9007 209.913C43.0514 197.24 65.07 184.368 85.7593 174.482C88.1081 173.363 95.7842 168.59 97.4833 168.16C104.07 166.503 100.692 167.132 104.41 165.104C140.841 145.252 196.302 125.469 237.981 112.057C251.074 107.843 269.954 102.131 283.777 100.753C285.396 100.593 292.463 101.182 289.844 103.17C289.224 103.639 282.278 104.568 282.288 106.086C282.308 108.572 291.813 108.572 293.932 108.013C294.642 107.823 300.229 103.14 300.239 102.76C300.269 101.582 294.102 100.643 292.683 100.254C291.773 100.004 290.524 100.124 290.794 99.0253L306.435 94.891C307.995 95.0408 314.941 94.5315 315.391 94.8611C317.37 96.359 313.082 96.7185 312.622 96.9582C310.583 98.0167 309.494 100.633 312.212 101.392C314.631 102.061 324.006 100.433 324.736 98.4961C324.996 97.797 325.116 95.4003 324.756 94.941C324.526 94.6414 315.561 93.4131 318.229 91.5356C318.799 91.1362 328.564 90.1176 330.733 89.6383C337.28 88.1902 344.276 86.0332 350.923 84.9347C353.491 84.5053 362.297 82.9874 364.096 83.1671C369.223 83.6964 363.376 87.0019 365.025 89.059C367.674 92.3545 373.751 88.0005 375.66 87.5411C377.569 87.0818 385.385 87.9905 385.385 85.2942C385.385 82.4381 371.852 81.9987 369.313 82.3782C369.313 81.6592 370.183 81.05 370.912 80.8803C376.209 79.5821 383.826 79.7418 389.952 78.4836C432.211 69.8055 476.598 64.9821 520.235 62.4456C529.73 61.8964 539.005 61.2972 548.65 61.5668C550.809 61.6267 553.308 62.7652 555.047 62.3458C557.506 61.7466 558.635 57.3926 558.625 55.3754C558.595 50.9215 557.346 43.4617 556.546 38.8381C555.967 35.4727 552.069 23.8287 553.308 21.7116C555.747 17.5473 559.645 22.161 562.054 23.1896C574.547 28.5123 589.599 30.9789 602.573 34.9734C639.054 46.198 678.114 60.5382 715.324 68.9067C717.793 69.456 720.832 69.1864 723.4 70.1251C732.696 73.5304 714.225 82.4481 712.286 85.7236C702.811 90.9964 694.305 97.6672 685.25 103.529C656.925 121.884 623.362 140.708 592.918 156.237C590.789 157.325 580.764 162.328 579.325 161.779C574.947 160.111 577.036 154.229 576.476 150.994C576.056 148.587 574.147 145.631 573.768 142.575C573.008 136.474 573.508 118.019 567.971 114.414C565.712 112.946 550.31 112.117 546.661 112.277C523.563 113.256 500.096 114.424 477.387 117.909C424.515 126.028 371.072 138.921 320.548 154.669C273.193 169.439 229.215 187.614 184.149 206.897C180.66 208.395 175.093 212.11 170.895 212.779C168.627 213.138 167.397 211.271 165.848 211.601C162.959 212.22 151.535 217.063 148.217 218.551C134.734 224.583 121.601 232.392 107.608 237.735C104.67 238.853 102.181 240.171 98.9825 238.873C98.053 238.494 96.5238 237.745 96.8436 236.596C96.9536 236.197 103.53 232.132 104.48 231.663C110.796 228.497 117.843 226.47 124.229 223.245C142.71 213.907 163.049 205.569 182.26 196.921C186.317 195.093 191.095 193.456 195.263 191.718C198.581 184.787 191.165 187.584 186.997 189.441C181.28 191.998 175.813 194.454 169.976 196.931C168.577 197.53 167.347 198.818 165.958 199.218C164.849 199.537 160.651 199.917 160.221 199.587L160.231 199.597ZM412.001 82.2883C412.081 82.3782 414.11 83.0872 414.41 83.1272C417.498 83.5566 417.348 77.0855 415.199 76.5762C411.521 75.7074 411.022 81.12 412.001 82.2883ZM395.46 80.0115C391.612 81.05 395.29 84.4354 400.087 84.1059C406.744 83.6465 403.046 77.9543 395.46 80.0115ZM353.231 93.1934C353.551 92.9337 353.171 91.3259 352.782 90.6868C349.833 85.7037 338.109 92.9038 345.176 94.0422C346.635 94.2819 352.382 93.8924 353.231 93.1934ZM274.712 109.002C274.532 108.882 270.694 107.643 270.464 107.634C267.895 107.554 258.52 111.069 259.62 114.304C260.719 117.54 266.156 115.043 268.465 115.732C270.094 116.212 269.025 119.307 274.152 118.059C277.8 117.17 272.123 114.534 272.053 113.585C271.983 112.637 275.691 109.701 274.702 109.012L274.712 109.002ZM369.953 107.414C365.375 108.592 368.553 112.786 371.552 112.217C375.64 111.438 373.471 106.505 369.953 107.414ZM250.594 114.145C249.835 114.105 246.327 116.461 246.337 116.881C246.386 119.437 253.833 119.427 253.883 116.881C253.883 116.681 250.954 114.155 250.604 114.145H250.594ZM329.743 120.476C332.322 122.094 339.349 119.857 337.629 116.451C335.72 112.677 328.044 115.393 327.685 116.931C327.615 117.23 329.554 120.356 329.733 120.466L329.743 120.476ZM323.906 119.807C320.658 118.828 314.661 116.971 316.5 121.724C318.049 125.719 322.327 122.303 323.906 119.807ZM232.134 129.773C231.824 129.503 231.964 127.386 233.053 126.847C235.052 125.868 237.321 127.277 239.18 124.75C242.948 119.617 238.82 117.59 233.023 119.337C231.804 119.707 230.844 120.835 229.515 121.235C226.777 122.064 216.722 124.091 216.052 126.867C215.342 129.813 222.799 128.784 224.948 129.014C229.935 129.553 234.163 133.109 239.7 131.021C238.491 128.814 232.664 130.222 232.134 129.773ZM168.017 147.429C169.266 146.69 173.774 146.8 175.623 146.21C177.042 145.761 177.672 144.493 178.801 144.013C184.898 141.407 190.275 139.999 196.442 137.892C198.761 137.103 208.526 133.059 208.476 131.021C208.416 128.804 203.329 129.454 201.63 129.993C190.815 133.448 180.57 139.13 170.376 143.255C165.708 145.142 160.501 146.58 155.713 148.238C154.394 151.064 152.005 152.761 156.903 153.101C160.391 153.341 163.939 151.044 166.838 149.256C167.457 148.877 167.557 147.708 168.027 147.439L168.017 147.429ZM335.251 137.263C333.601 135.865 327.475 141.347 328.634 142.246C330.813 143.934 337.08 138.821 335.251 137.263ZM250.984 141.477C249.905 140.349 239.43 142.675 238.92 145.252C238.87 145.511 239.64 148.687 239.77 148.837C240.889 150.055 245.607 147.758 247.016 147.399C249.325 146.81 251.614 148.228 251.724 145.032C251.744 144.473 251.114 141.617 250.984 141.477ZM311.603 144.743C310.923 144.073 305.016 147.968 304.996 148.477C304.946 149.895 310.074 150.135 311.643 149.336C312.462 148.917 311.773 144.912 311.603 144.743ZM191.445 148.887C190.495 146.32 184.568 146.959 182.539 147.988C181.49 148.517 182.31 150.914 181.06 151.813C182.549 153.281 181.96 153.021 183.409 152.232C185.888 150.874 188.536 149.386 191.445 148.887ZM226.007 149.206C218.011 148.987 223.618 156.067 226.807 155.478C227.616 155.328 230.425 152.781 230.205 151.883C230.005 151.044 227.126 149.236 226.007 149.206ZM211.185 162.918C213.234 160.381 209.216 156.846 206.137 156.716C201.6 156.516 196.992 159.652 194.293 162.608C196.752 165.674 209.426 165.095 211.185 162.918ZM269.025 163.856C270.884 165.354 282.558 162.538 281.318 158.474C280.619 156.157 270.884 156.686 269.445 160.491C269.155 161.26 268.685 163.587 269.015 163.856H269.025ZM170.326 170.697C166.708 170.936 164.879 173.443 162.39 174.482C160.531 175.261 158.202 175.171 156.483 175.94C153.065 177.487 150.186 183.25 155.513 182.62C161.67 181.891 167.867 176.539 173.454 174.222C176.043 172.754 172.455 170.547 170.326 170.687V170.697Z" fill="#EBDBCD"/>
<path d="M110.257 225.522C109.317 226.061 108.088 231.284 104.39 227.469C101.501 224.493 106.929 224.473 108.458 223.674C120.092 217.582 131.036 211.111 144.089 205.779C144.979 205.419 145.569 204.221 146.688 203.911C148.097 203.522 152.695 203.602 152.655 205.01C152.635 205.948 148.697 206.608 147.588 207.197C141.921 210.193 137.033 214.247 131.186 216.893C129.707 217.563 127.458 217.513 126.209 218.341C125.279 218.961 125.069 220.369 124.31 220.828C122.93 221.667 120.731 220.908 119.212 221.337C117.823 221.727 117.533 223.954 115.554 224.763C113.715 225.512 111.056 225.072 110.267 225.532L110.257 225.522Z" fill="#EBDBCD"/>
<path d="M83.8693 246.413C82.2701 247.332 79.5015 249.948 77.2327 250.947C76.4031 251.316 71.7255 253.244 72.2453 250.727C72.9049 249.499 75.2937 249.778 75.8234 249.289C76.3531 248.8 75.9134 247.182 76.9228 246.533C77.9823 245.844 80.581 246.123 82.0302 245.374C82.9497 244.895 83.0797 243.457 83.9992 242.788C84.5389 242.398 88.6768 240.171 89.5064 239.732C90.3359 239.293 96.8925 237.984 96.8326 239.912C96.7926 241 93.1944 241.15 92.145 241.6C90.6957 242.229 89.4864 244.306 87.7373 245.215C86.4679 245.874 84.9087 245.814 83.8693 246.413Z" fill="#EBDBCD"/>
<path d="M72.246 196.272C72.4559 195.633 71.9462 194.564 72.6558 193.745C73.6253 192.627 76.7337 192.976 78.2429 192.167C79.0725 191.718 79.2224 190.34 80.3519 189.701C80.8016 189.451 87.4482 186.915 88.2778 186.665C92.9054 185.287 95.534 187.444 91.1962 188.373C85.1794 189.661 88.7575 189.052 87.2383 191.099C86.7985 191.688 82.6906 192.217 81.3113 193.036C80.1619 193.725 80.012 195.023 79.1824 195.483C77.0036 196.691 74.4149 195.992 72.246 196.272C71.0766 199.887 70.1971 197.959 67.5185 199.188C66.0992 199.837 66.0592 201.554 64.9898 202.144C61.6015 204.021 55.6046 203.002 61.1617 200.256C64.6899 198.519 68.1481 196.801 72.236 196.272H72.246Z" fill="#EBDBCD"/>
<path d="M58.0426 203.761C59.9216 205.149 53.345 206.867 52.6353 207.336C49.7268 209.234 47.3981 209.763 45.7789 210.852C44.8494 211.471 44.6495 212.859 43.8799 213.338C41.8609 214.596 35.2643 214.237 39.5721 211.221C42.1808 209.404 46.8983 207.556 49.8868 206.148C50.8962 205.679 51.5559 204.55 52.3755 204.181C53.4349 203.711 57.6128 203.442 58.0426 203.761Z" fill="#EBDBCD"/>
<path d="M115.764 175.49C117.153 176.499 114.155 177.687 113.445 178.017C109.227 179.964 105.889 182.371 100.632 181.302C100.172 178.975 101.202 179.924 102.721 179.445C106.159 178.356 108.528 175.96 109.787 175.64C110.727 175.39 115.524 175.321 115.764 175.5V175.49Z" fill="#EBDBCD"/>
</svg>
