<svg width="284" height="284" viewBox="0 0 284 284" fill="none" xmlns="http://www.w3.org/2000/svg">
<path d="M218.63 180.03C218.6 180.36 218.58 180.7 218.55 181.03C218.37 182.97 218.12 184.89 217.8 186.78C217.74 187.14 217.67 187.49 217.61 187.85C217.26 189.77 216.85 191.67 216.37 193.54C216.32 193.72 216.26 193.9 216.21 194.09C215.71 195.94 215.15 197.76 214.52 199.56C214.46 199.73 214.41 199.9 214.35 200.07C213.69 201.9 212.96 203.69 212.17 205.46C212.05 205.73 211.93 206.01 211.8 206.28C210.99 208.03 210.13 209.75 209.2 211.42C209.1 211.6 208.99 211.78 208.88 211.97C208.24 213.1 207.53 214.19 206.83 215.28C206.85 214.7 206.9 214.12 206.9 213.53C206.9 212.18 206.83 210.85 206.73 209.53C206.69 209.04 206.62 208.55 206.57 208.06C206.48 207.26 206.39 206.46 206.26 205.67C206.16 205.05 206.04 204.44 205.92 203.83C205.8 203.22 205.67 202.61 205.52 202C205.35 201.29 205.17 200.59 204.97 199.89C204.84 199.46 204.71 199.03 204.57 198.6C204.31 197.77 204.04 196.95 203.74 196.14C203.71 196.07 203.68 196 203.65 195.93C201.76 190.98 199.08 186.44 195.8 182.41C183.74 168.41 176.6 152.77 175.21 139.5C175.21 139.45 175.19 139.39 175.18 139.34C174.17 132.47 174.94 126.34 177.71 121.4C162.41 126.72 148.47 140.33 141.27 159.08C135.4 174.36 135.15 190.11 139.47 203.12C129.77 196.5 123.29 188.27 121.65 179.86C113.43 188.68 108.4 200.52 108.4 213.54C108.4 227.42 114.13 239.94 123.33 248.91C89.6201 240.62 64.5801 210.21 64.5801 173.87C64.5801 153.47 72.4701 134.93 85.3401 121.11C87.9101 134.29 98.0701 147.18 113.26 157.55C106.49 137.17 106.89 112.5 116.08 88.56C127.36 59.18 149.2 37.86 173.17 29.52C168.82 37.27 167.63 46.86 169.2 57.63C169.2 57.71 169.23 57.8 169.24 57.88C171.41 78.67 182.59 103.17 201.49 125.1C206.63 131.41 210.83 138.53 213.79 146.28C213.83 146.39 213.88 146.5 213.92 146.61C214.4 147.88 214.82 149.17 215.23 150.47C215.44 151.14 215.66 151.81 215.85 152.49C216.16 153.58 216.45 154.69 216.72 155.8C216.95 156.75 217.15 157.71 217.35 158.67C217.54 159.63 217.73 160.59 217.89 161.56C218.09 162.8 218.24 164.05 218.38 165.3C218.46 166.07 218.57 166.83 218.63 167.6C218.8 169.67 218.9 171.75 218.9 173.87C218.9 175.99 218.79 178 218.64 180.03H218.63Z" fill="white"/>
</svg>
