<svg width="284" height="284" viewBox="0 0 284 284" fill="none" xmlns="http://www.w3.org/2000/svg">
<path d="M219.111 179.55C219.081 179.88 219.061 180.22 219.031 180.55C218.851 182.49 218.601 184.41 218.281 186.3C218.221 186.66 218.151 187.01 218.091 187.37C217.741 189.29 217.331 191.19 216.851 193.06C216.801 193.24 216.741 193.42 216.691 193.61C216.191 195.46 215.631 197.28 215.001 199.08C214.941 199.25 214.891 199.42 214.831 199.59C214.171 201.42 213.441 203.21 212.651 204.98C212.531 205.25 212.411 205.53 212.281 205.8C211.471 207.55 210.611 209.27 209.681 210.94C209.581 211.12 209.471 211.3 209.361 211.49C208.721 212.62 208.011 213.71 207.311 214.8C207.331 214.22 207.381 213.64 207.381 213.05C207.381 211.7 207.311 210.37 207.211 209.05C207.171 208.56 207.101 208.07 207.051 207.58C206.961 206.78 206.871 205.98 206.741 205.19C206.641 204.57 206.521 203.96 206.401 203.35C206.281 202.74 206.151 202.13 206.001 201.52C205.831 200.81 205.651 200.11 205.451 199.41C205.321 198.98 205.191 198.55 205.051 198.12C204.791 197.29 204.521 196.47 204.221 195.66C204.191 195.59 204.161 195.52 204.131 195.45C202.241 190.5 199.561 185.96 196.281 181.93C184.221 167.93 177.081 152.29 175.691 139.02C175.691 138.97 175.671 138.91 175.661 138.86C174.651 131.99 175.421 125.86 178.191 120.92C162.891 126.24 148.951 139.85 141.751 158.6C135.881 173.88 135.631 189.63 139.951 202.64C130.251 196.02 123.771 187.79 122.131 179.38C113.911 188.2 108.881 200.04 108.881 213.06C108.881 226.94 114.611 239.46 123.811 248.43C90.1005 240.14 65.0605 209.73 65.0605 173.39C65.0605 152.99 72.9505 134.45 85.8205 120.63C88.3905 133.81 98.5505 146.7 113.741 157.07C106.971 136.69 107.371 112.02 116.561 88.08C127.841 58.7 149.681 37.38 173.651 29.04C169.301 36.79 168.111 46.38 169.681 57.15C169.681 57.23 169.711 57.32 169.721 57.4C171.891 78.19 183.071 102.69 201.971 124.62C207.111 130.93 211.311 138.05 214.271 145.8C214.311 145.91 214.361 146.02 214.401 146.13C214.881 147.4 215.301 148.69 215.711 149.99C215.921 150.66 216.141 151.33 216.331 152.01C216.641 153.1 216.931 154.21 217.201 155.32C217.431 156.27 217.631 157.23 217.831 158.19C218.021 159.15 218.211 160.11 218.371 161.08C218.571 162.32 218.721 163.57 218.861 164.82C218.941 165.59 219.051 166.35 219.111 167.12C219.281 169.19 219.381 171.27 219.381 173.39C219.381 175.51 219.271 177.52 219.121 179.55H219.111Z" fill="#C0987C"/>
</svg>
