<svg width="284" height="284" viewBox="0 0 284 284" fill="none" xmlns="http://www.w3.org/2000/svg">
<path d="M218.63 179.55C218.6 179.88 218.58 180.22 218.55 180.55C218.37 182.49 218.12 184.41 217.8 186.3C217.74 186.66 217.67 187.01 217.61 187.37C217.26 189.29 216.85 191.19 216.37 193.06C216.32 193.24 216.26 193.42 216.21 193.61C215.71 195.46 215.15 197.28 214.52 199.08C214.46 199.25 214.41 199.42 214.35 199.59C213.69 201.42 212.96 203.21 212.17 204.98C212.05 205.25 211.93 205.53 211.8 205.8C210.99 207.55 210.13 209.27 209.2 210.94C209.1 211.12 208.99 211.3 208.88 211.49C208.24 212.62 207.53 213.71 206.83 214.8C206.85 214.22 206.9 213.64 206.9 213.05C206.9 211.7 206.83 210.37 206.73 209.05C206.69 208.56 206.62 208.07 206.57 207.58C206.48 206.78 206.39 205.98 206.26 205.19C206.16 204.57 206.04 203.96 205.92 203.35C205.8 202.74 205.67 202.13 205.52 201.52C205.35 200.81 205.17 200.11 204.97 199.41C204.84 198.98 204.71 198.55 204.57 198.12C204.31 197.29 204.04 196.47 203.74 195.66C203.71 195.59 203.68 195.52 203.65 195.45C201.76 190.5 199.08 185.96 195.8 181.93C183.74 167.93 176.6 152.29 175.21 139.02C175.21 138.97 175.19 138.91 175.18 138.86C174.17 131.99 174.94 125.86 177.71 120.92C162.41 126.24 148.47 139.85 141.27 158.6C135.4 173.88 135.15 189.63 139.47 202.64C129.77 196.02 123.29 187.79 121.65 179.38C113.43 188.2 108.4 200.04 108.4 213.06C108.4 226.94 114.13 239.46 123.33 248.43C89.6201 240.14 64.5801 209.73 64.5801 173.39C64.5801 152.99 72.4701 134.45 85.3401 120.63C87.9101 133.81 98.0701 146.7 113.26 157.07C106.49 136.69 106.89 112.02 116.08 88.08C127.36 58.7 149.2 37.38 173.17 29.04C168.82 36.79 167.63 46.38 169.2 57.15C169.2 57.23 169.23 57.32 169.24 57.4C171.41 78.19 182.59 102.69 201.49 124.62C206.63 130.93 210.83 138.05 213.79 145.8C213.83 145.91 213.88 146.02 213.92 146.13C214.4 147.4 214.82 148.69 215.23 149.99C215.44 150.66 215.66 151.33 215.85 152.01C216.16 153.1 216.45 154.21 216.72 155.32C216.95 156.27 217.15 157.23 217.35 158.19C217.54 159.15 217.73 160.11 217.89 161.08C218.09 162.32 218.24 163.57 218.38 164.82C218.46 165.59 218.57 166.35 218.63 167.12C218.8 169.19 218.9 171.27 218.9 173.39C218.9 175.51 218.79 177.52 218.64 179.55H218.63Z" fill="#564A44"/>
</svg>
