<svg width="285" height="284" viewBox="0 0 285 284" fill="none" xmlns="http://www.w3.org/2000/svg">
<path d="M219.591 179.55C219.561 179.88 219.541 180.22 219.511 180.55C219.331 182.49 219.081 184.41 218.761 186.3C218.701 186.66 218.631 187.01 218.571 187.37C218.221 189.29 217.811 191.19 217.331 193.06C217.281 193.24 217.221 193.42 217.171 193.61C216.671 195.46 216.111 197.28 215.481 199.08C215.421 199.25 215.371 199.42 215.311 199.59C214.651 201.42 213.921 203.21 213.131 204.98C213.011 205.25 212.891 205.53 212.761 205.8C211.951 207.55 211.091 209.27 210.161 210.94C210.061 211.12 209.951 211.3 209.841 211.49C209.201 212.62 208.491 213.71 207.791 214.8C207.811 214.22 207.861 213.64 207.861 213.05C207.861 211.7 207.791 210.37 207.691 209.05C207.651 208.56 207.581 208.07 207.531 207.58C207.441 206.78 207.351 205.98 207.221 205.19C207.121 204.57 207.001 203.96 206.881 203.35C206.761 202.74 206.631 202.13 206.481 201.52C206.311 200.81 206.131 200.11 205.931 199.41C205.801 198.98 205.671 198.55 205.531 198.12C205.271 197.29 205.001 196.47 204.701 195.66C204.671 195.59 204.641 195.52 204.611 195.45C202.721 190.5 200.041 185.96 196.761 181.93C184.701 167.93 177.561 152.29 176.171 139.02C176.171 138.97 176.151 138.91 176.141 138.86C175.131 131.99 175.901 125.86 178.671 120.92C163.371 126.24 149.431 139.85 142.231 158.6C136.361 173.88 136.111 189.63 140.431 202.64C130.731 196.02 124.251 187.79 122.611 179.38C114.391 188.2 109.361 200.04 109.361 213.06C109.361 226.94 115.091 239.46 124.291 248.43C90.581 240.14 65.541 209.73 65.541 173.39C65.541 152.99 73.431 134.45 86.301 120.63C88.871 133.81 99.031 146.7 114.221 157.07C107.451 136.69 107.851 112.02 117.041 88.08C128.321 58.7 150.161 37.38 174.131 29.04C169.781 36.79 168.591 46.38 170.161 57.15C170.161 57.23 170.191 57.32 170.201 57.4C172.371 78.19 183.551 102.69 202.451 124.62C207.591 130.93 211.791 138.05 214.751 145.8C214.791 145.91 214.841 146.02 214.881 146.13C215.361 147.4 215.781 148.69 216.191 149.99C216.401 150.66 216.621 151.33 216.811 152.01C217.121 153.1 217.411 154.21 217.681 155.32C217.911 156.27 218.111 157.23 218.311 158.19C218.501 159.15 218.691 160.11 218.851 161.08C219.051 162.32 219.201 163.57 219.341 164.82C219.421 165.59 219.531 166.35 219.591 167.12C219.761 169.19 219.861 171.27 219.861 173.39C219.861 175.51 219.751 177.52 219.601 179.55H219.591Z" fill="#AA7B5D"/>
</svg>
