<svg width="1045" height="447" viewBox="0 0 1045 447" fill="none" xmlns="http://www.w3.org/2000/svg">
<path d="M873.277 244.078H832.559C820.309 244.078 814.729 233.127 814.729 222.896C814.729 212.664 820.309 201.713 832.559 201.713H873.277V172.467C873.277 170.609 871.677 168.171 868.997 168.171H831.579C804.93 168.171 789.79 186.276 785.561 208.647C784.381 214.882 783.871 226.902 784.921 233.557C788.69 257.427 803.43 277.63 831.579 277.63H868.997C871.677 277.63 873.277 275.372 873.277 273.284V244.078Z" fill="#EBDBCD"/>
<path d="M830.909 236.364C838.094 236.364 843.918 230.544 843.918 223.365C843.918 216.186 838.094 210.366 830.909 210.366C823.724 210.366 817.899 216.186 817.899 223.365C817.899 230.544 823.724 236.364 830.909 236.364Z" fill="#EBDBCD"/>
<path d="M208.542 176.864C211.242 174.276 218.052 169.89 222.422 168.531C271.52 153.223 307.719 211.305 283.019 252.761C257.26 295.995 174.974 280.158 174.974 231.628V123.588H204.203C206.502 123.588 208.542 125.636 208.542 127.864V176.864ZM227.072 197.846C201.173 201.334 202.173 243.718 225.832 246.916C269.09 252.771 268.5 192.271 227.072 197.846Z" fill="#EBDBCD"/>
<path d="M544.839 277.5H514.71V215.831C514.71 190.582 470.272 193.6 470.272 213.863V273.224C470.272 275.042 468.682 277.5 465.942 277.5H436.703V211.885C436.703 153.523 548.279 150.366 548.279 214.842V274.053C548.279 275.952 546.739 277.49 544.839 277.49V277.5Z" fill="#EBDBCD"/>
<path d="M678.565 172.247V277.5H644.996V167.981H674.305C676.945 167.981 678.565 170.129 678.565 172.247Z" fill="#EBDBCD"/>
<path d="M361.487 166.292C283.53 168.62 287.48 282.146 367.126 278.519C442.024 275.102 439.474 163.974 361.487 166.292ZM392.005 226.503C391.995 226.622 391.985 226.752 391.975 226.872C391.905 227.592 391.815 228.301 391.695 229.01C391.675 229.14 391.646 229.28 391.626 229.41C391.496 230.12 391.346 230.829 391.166 231.528C391.146 231.598 391.126 231.668 391.106 231.728C390.916 232.418 390.706 233.097 390.476 233.757C390.456 233.816 390.436 233.886 390.416 233.946C390.176 234.626 389.896 235.295 389.606 235.945C389.556 236.045 389.516 236.145 389.466 236.244C389.166 236.894 388.846 237.533 388.496 238.153C388.456 238.223 388.416 238.293 388.376 238.353C388.136 238.772 387.876 239.172 387.616 239.582C387.616 239.362 387.646 239.152 387.646 238.932C387.646 238.433 387.626 237.933 387.586 237.443C387.576 237.264 387.546 237.084 387.526 236.894C387.496 236.594 387.456 236.304 387.406 236.005C387.366 235.775 387.326 235.545 387.276 235.315C387.226 235.085 387.186 234.856 387.126 234.636C387.066 234.376 386.996 234.106 386.926 233.846C386.876 233.687 386.826 233.527 386.776 233.367C386.676 233.057 386.576 232.757 386.466 232.448C386.456 232.418 386.446 232.398 386.436 232.368C385.736 230.529 384.736 228.841 383.516 227.342C379.036 222.136 376.376 216.331 375.866 211.405C375.866 211.385 375.866 211.365 375.866 211.345C375.496 208.787 375.776 206.519 376.806 204.681C371.116 206.659 365.936 211.715 363.257 218.679C361.077 224.354 360.977 230.209 362.587 235.035C358.977 232.577 356.567 229.52 355.957 226.393C352.907 229.67 351.027 234.066 351.027 238.902C351.027 244.058 353.157 248.714 356.577 252.041C344.047 248.964 334.738 237.663 334.738 224.164C334.738 216.591 337.668 209.696 342.457 204.561C343.407 209.457 347.187 214.243 352.837 218.099C350.317 210.526 350.467 201.363 353.887 192.471C358.077 181.56 366.196 173.636 375.106 170.539C373.486 173.416 373.046 176.984 373.636 180.98C373.636 181.01 373.646 181.04 373.646 181.07C374.456 188.794 378.606 197.896 385.636 206.039C387.546 208.388 389.106 211.025 390.206 213.903C390.226 213.943 390.236 213.983 390.256 214.023C390.436 214.492 390.586 214.972 390.746 215.452C390.826 215.701 390.906 215.951 390.976 216.201C391.096 216.611 391.196 217.02 391.296 217.43C391.376 217.78 391.456 218.139 391.526 218.499C391.596 218.859 391.665 219.209 391.725 219.568C391.795 220.028 391.856 220.497 391.906 220.957C391.936 221.247 391.975 221.527 391.995 221.816C392.055 222.586 392.095 223.355 392.095 224.144C392.095 224.934 392.055 225.673 391.995 226.433L392.005 226.503Z" fill="#EBDBCD"/>
<path d="M727.463 226.513C727.343 214.533 731.793 201.753 745.392 201.753H776.101V172.487C776.101 170.379 774.381 168.211 771.821 168.211H744.402C711.533 168.211 696.224 197.137 696.834 225.524V277.64H723.583C726.293 277.64 727.903 275.322 727.903 273.364L727.453 226.523L727.463 226.513Z" fill="#EBDBCD"/>
<path d="M633.597 112.637C626.967 111.768 614.377 112.737 608.307 114.006C587.808 118.272 567.039 136.237 567.039 157.62V277.5H596.278C596.278 277.5 597.548 277.5 599.078 276.561C600.758 275.532 600.608 273.863 600.608 273.863V199.515H626.957V171.968C626.947 169.879 624.837 167.991 622.677 167.991H600.618V167.941C599.848 149.366 615.907 141.073 635.146 144.6L637.146 144.94V117.133C637.146 115.005 636.026 112.957 633.597 112.637Z" fill="#EBDBCD"/>
</svg>
